<svg width="52" height="58" viewBox="0 0 52 58" fill="none" xmlns="http://www.w3.org/2000/svg">
<path d="M51.3929 17.4475C51.3926 16.4883 51.1874 15.6407 50.7726 14.9133C50.3651 14.198 49.7548 13.5984 48.9362 13.1244C42.1793 9.22832 35.4158 5.34414 28.661 1.44408C26.84 0.392761 25.0743 0.431089 23.2668 1.4975C20.5773 3.08362 7.1121 10.7982 3.09964 13.1222C1.4472 14.0788 0.643116 15.5428 0.642718 17.4457C0.640137 25.2809 0.642718 33.116 0.640137 40.9515C0.640137 41.8896 0.836937 42.7207 1.23352 43.4372C1.64122 44.1742 2.26001 44.7902 3.09746 45.2749C7.11012 47.599 20.5771 55.3129 23.266 56.8995C25.0743 57.9665 26.84 58.0046 28.6616 56.9529C35.4166 53.0526 42.1805 49.1686 48.9384 45.2725C49.7758 44.788 50.3946 44.1716 50.8023 43.4352C51.1983 42.7187 51.3955 41.8876 51.3955 40.9493C51.3955 40.9493 51.3955 25.2829 51.3929 17.4475Z" fill="#A179DC"/>
<path d="M26.0954 29.1222L1.2334 43.4372C1.6411 44.1742 2.2599 44.7902 3.09734 45.2749C7.11 47.599 20.577 55.3129 23.2659 56.8995C25.0742 57.9665 26.8399 58.0046 28.6615 56.9529C35.4165 53.0526 42.1804 49.1686 48.9383 45.2726C49.7757 44.788 50.3945 44.1716 50.8022 43.4352L26.0954 29.1222Z" fill="#280068"/>
<path d="M51.3932 17.4474C51.3928 16.4882 51.1876 15.6407 50.7728 14.9132L26.0957 29.1222L50.8026 43.4352C51.1986 42.7187 51.3954 41.8876 51.3958 40.9493C51.3958 40.9493 51.3958 25.2829 51.3932 17.4474Z" fill="#390091"/>
<path d="M40.733 23.7708V26.4465H43.4087V23.7708H44.7466V26.4465H47.4223V27.7843H44.7466V30.46H47.4223V31.7979H44.7466V34.4736H43.4087V31.7979H40.733V34.4736H39.3952V31.7979H36.7195V30.46H39.3952V27.7843H36.7195V26.4465H39.3952V23.7708H40.733ZM43.4087 27.7843H40.733V30.46H43.4087V27.7843Z" fill="white"/>
<path d="M26.1499 10.3328C33.129 10.3328 39.2223 14.1231 42.486 19.757L42.4542 19.7027L34.2429 24.4308C32.625 21.6915 29.6592 19.843 26.257 19.8049L26.1499 19.8043C20.9616 19.8043 16.7555 24.0103 16.7555 29.1985C16.7555 30.8952 17.2078 32.4856 17.9944 33.8592C19.6137 36.6862 22.6579 38.5929 26.1499 38.5929C29.6634 38.5929 32.7249 36.662 34.3359 33.8048L34.2968 33.8734L42.4958 38.6232C39.2679 44.2094 33.258 47.988 26.36 48.0633L26.1499 48.0644C19.1487 48.0644 13.0381 44.2508 9.78257 38.5871C8.19328 35.8222 7.28394 32.6167 7.28394 29.1985C7.28394 18.7794 15.7303 10.3328 26.1499 10.3328Z" fill="white"/>
</svg>
