<svg width="48" height="48" viewBox="0 0 48 48" fill="none" xmlns="http://www.w3.org/2000/svg">
<path d="M40.2982 0.79126H7.27732C3.3694 0.79126 0.201416 3.95925 0.201416 7.86716V40.888C0.201416 44.7959 3.3694 47.9639 7.27732 47.9639H40.2982C44.2061 47.9639 47.3741 44.7959 47.3741 40.888V7.86716C47.3741 3.95925 44.2061 0.79126 40.2982 0.79126Z" fill="#F7DF1E"/>
<path d="M30.0529 34.8809C30.9742 36.4472 32.2641 37.5528 34.3832 37.5528C36.2259 37.5528 37.4236 36.6314 37.4236 35.3415C37.4236 33.8674 36.2259 33.3146 34.1989 32.3933L33.0933 31.9326C29.8686 30.5506 27.7496 28.8922 27.7496 25.2989C27.7496 21.9821 30.2372 19.4023 34.1989 19.4023C37.0551 19.4023 39.082 20.4158 40.4641 22.9956L37.0551 25.2068C36.318 23.8248 35.4888 23.272 34.1989 23.272C32.9091 23.272 32.0799 24.1012 32.0799 25.2068C32.0799 26.4967 32.9091 27.0495 34.8439 27.8787L35.9495 28.3394C39.727 29.9978 41.8461 31.564 41.8461 35.3415C41.8461 39.3033 38.7135 41.5145 34.4753 41.5145C30.3293 41.5145 27.6574 39.5797 26.3675 37L30.0529 34.8809ZM14.3901 35.2494C15.1272 36.4472 15.68 37.5528 17.2463 37.5528C18.7204 37.5528 19.6417 37 19.6417 34.7887V19.4945H24.0642V34.6045C24.0642 39.2112 21.3923 41.2381 17.4305 41.2381C13.8373 41.2381 11.8104 39.3954 10.7969 37.1842L14.3901 35.2494Z" fill="black"/>
</svg>
