<svg width="70" height="69" viewBox="0 0 70 69" fill="none" xmlns="http://www.w3.org/2000/svg">
<path d="M34.7259 0C17.1543 1.25216e-06 18.2516 7.62008 18.2516 7.62008L18.2712 15.5144H35.0393V17.8847H11.611C11.611 17.8847 0.366943 16.6095 0.366943 34.3393C0.366942 52.0692 10.181 51.4405 10.181 51.4405H16.0381V43.2131C16.0381 43.2131 15.7224 33.3991 25.6954 33.3991H42.3264C42.3264 33.3991 51.6703 33.5501 51.6703 24.3686V9.18719C51.6703 9.18719 53.0889 0 34.7259 0ZM25.4799 5.30859C27.1482 5.30859 28.4966 6.65698 28.4966 8.32528C28.4966 9.99359 27.1482 11.342 25.4799 11.342C23.8116 11.342 22.4632 9.99359 22.4632 8.32528C22.4632 6.65698 23.8116 5.30859 25.4799 5.30859Z" fill="url(#paint0_linear_1_671)"/>
<path d="M35.2249 68.8565C52.7965 68.8565 51.6992 61.2364 51.6992 61.2364L51.6796 53.3421H34.9115V50.9718H58.3398C58.3398 50.9718 69.5839 52.247 69.5839 34.5171C69.5839 16.7873 59.7698 17.416 59.7698 17.416H53.9128V25.6434C53.9128 25.6434 54.2285 35.4574 44.2554 35.4574H27.6244C27.6244 35.4574 18.2805 35.3064 18.2805 44.4879V59.6693C18.2805 59.6693 16.8619 68.8565 35.2249 68.8565ZM44.4709 63.5479C42.8026 63.5479 41.4542 62.1995 41.4542 60.5312C41.4542 58.8629 42.8026 57.5145 44.4709 57.5145C46.1392 57.5145 47.4876 58.8629 47.4876 60.5312C47.4876 62.1995 46.1392 63.5479 44.4709 63.5479Z" fill="url(#paint1_linear_1_671)"/>
<defs>
<linearGradient id="paint0_linear_1_671" x1="1703.25" y1="1579.33" x2="10484.3" y2="10238.8" gradientUnits="userSpaceOnUse">
<stop stop-color="#387EB8"/>
<stop offset="1" stop-color="#366994"/>
</linearGradient>
<linearGradient id="paint1_linear_1_671" x1="2531.64" y1="2716.99" x2="11961.6" y2="11596.6" gradientUnits="userSpaceOnUse">
<stop stop-color="#FFE052"/>
<stop offset="1" stop-color="#FFC331"/>
</linearGradient>
</defs>
</svg>
